<svg width="40" height="40" viewBox="0 0 40 40" fill="none" xmlns="http://www.w3.org/2000/svg">
<rect x="-7.5" y="-7.5" width="55" height="55" fill="white"/>
<rect x="-4.75" y="-4.75" width="49.5" height="49.5" fill="#FB344F"/>
<mask id="mask0_4707_508" style="mask-type:luminance" maskUnits="userSpaceOnUse" x="-5" y="-5" width="50" height="50">
<rect x="-4.75" y="-4.75" width="49.5" height="49.5" fill="white"/>
</mask>
<g mask="url(#mask0_4707_508)">
<path fill-rule="evenodd" clip-rule="evenodd" d="M38.0075 39.0073C36.5483 36.8965 34.3972 35.3623 31.9263 34.6702L26.1874 33.0625V28.9376C28.6135 27.1152 30.2067 24.2474 30.3046 21.0033C30.6437 21.1528 31.018 21.2375 31.4126 21.2375C32.9313 21.2375 34.1626 20.0063 34.1626 18.4875C34.1626 16.9687 32.9313 15.7375 31.4126 15.7375C31.0211 15.7375 30.6496 15.8204 30.3126 15.9678V15.1875C30.3126 9.49197 25.6955 4.875 20.0001 4.875H19.9999C14.3046 4.875 9.68758 9.49197 9.68758 15.1875V15.9678C9.35043 15.8204 8.97891 15.7375 8.58758 15.7375C7.06876 15.7375 5.83758 16.9687 5.83758 18.4875C5.83758 20.0063 7.06876 21.2375 8.58758 21.2375C8.98207 21.2375 9.35634 21.1529 9.69556 21.0033C9.79332 24.2474 11.3865 27.1152 13.8124 28.9376V33.0625L8.07375 34.6702C5.60287 35.3623 3.45168 36.8965 1.99253 39.0073L-1.99992 44.783V48.875H42.0001V44.783L38.0075 39.0073Z" fill="#FFCF83"/>
<path fill-rule="evenodd" clip-rule="evenodd" d="M20 31C18.7284 31 17.5112 30.7684 16.3865 30.3475C17.9861 31.3694 19.8858 31.9625 21.925 31.9625C23.4457 31.9625 24.8879 31.6307 26.1875 31.0399V28.9376C24.4639 30.2323 22.3216 31 20 31Z" fill="#F7A74F"/>
<path d="M10.0463 18.8888C10.0813 18.7611 10.1002 18.6265 10.1002 18.4876C10.1002 17.6523 9.42298 16.9751 8.58766 16.9751C8.3788 16.9751 8.17984 17.0174 7.99889 17.0939" stroke="#00004D" stroke-linecap="round" stroke-linejoin="round"/>
<path d="M29.9539 18.8888C29.9188 18.7611 29.9001 18.6265 29.9001 18.4876C29.9001 17.6523 30.5773 16.9751 31.4126 16.9751C31.6213 16.9751 31.8203 17.0174 32.0014 17.0939" stroke="#00004D" stroke-linecap="round" stroke-linejoin="round"/>
<path fill-rule="evenodd" clip-rule="evenodd" d="M22.75 24.6761C22.75 26.195 21.5188 27.4261 20 27.4261C18.4811 27.4261 17.25 26.195 17.25 24.6761H22.75Z" fill="white"/>
<path fill-rule="evenodd" clip-rule="evenodd" d="M25.6376 18.9C25.6376 19.5075 25.145 20 24.5376 20C23.9301 20 23.4376 19.5075 23.4376 18.9C23.4376 18.2926 23.9301 17.8 24.5376 17.8C25.145 17.8 25.6376 18.2926 25.6376 18.9Z" fill="#00004D"/>
<path fill-rule="evenodd" clip-rule="evenodd" d="M16.5625 18.9C16.5625 19.5075 16.07 20 15.4625 20C14.855 20 14.3625 19.5075 14.3625 18.9C14.3625 18.2926 14.855 17.8 15.4625 17.8C16.07 17.8 16.5625 18.2926 16.5625 18.9Z" fill="#00004D"/>
<path d="M20 17.8L21.375 22.475L19.45 22.75" stroke="#00004D" stroke-linecap="round" stroke-linejoin="round"/>
<path fill-rule="evenodd" clip-rule="evenodd" d="M32.9739 4.87512C32.9739 2.59688 31.127 0.750122 28.8489 0.750122C26.5708 0.750122 24.7239 2.59688 24.7239 4.87512C24.7239 5.00492 24.7306 5.13321 24.7424 5.25998C23.3064 4.57276 21.6983 4.18721 20.0001 4.18721C18.227 4.18721 16.5535 4.6092 15.0703 5.35431C15.0886 5.19701 15.0989 5.03737 15.0989 4.87512C15.0989 2.59688 13.252 0.750122 10.9739 0.750122C8.69578 0.750122 6.84888 2.59688 6.84888 4.87512C6.84888 7.13053 8.65934 8.96203 10.9062 8.99833C9.70379 10.7618 9.00007 12.8921 9.00007 15.1872V15.7714C9.65691 15.8706 10.2369 16.2004 10.655 16.678L10.6813 16.6715L11.2313 13.9215H22.4917V9.95946L23.8436 13.9215H28.7687L29.3187 16.6715L29.344 16.6792C29.7623 16.201 30.3425 15.8707 31.0001 15.7714V15.1872C31.0001 12.8894 30.2946 10.757 29.0898 8.99242C31.2557 8.86771 32.9739 7.07223 32.9739 4.87512Z" fill="#00004D"/>
<path fill-rule="evenodd" clip-rule="evenodd" d="M-2 44.7829V48.8751H42V44.7831L38.0075 39.0074C36.5483 36.8966 34.3972 35.3624 31.9262 34.6702L27.8676 33.5331L20 43.0114L12.1324 33.5331L8.0738 34.6702C5.60279 35.3624 3.4516 36.8966 1.99245 39.0074L-2 44.7829Z" fill="#000066"/>
</g>
</svg>
