<svg width="40" height="40" viewBox="0 0 40 40" fill="none" xmlns="http://www.w3.org/2000/svg">
<rect x="-7.5" y="-7.5" width="55" height="55" fill="white"/>
<rect x="-4.75" y="-4.75" width="49.5" height="49.5" fill="#FF64C8"/>
<mask id="mask0_4707_495" style="mask-type:luminance" maskUnits="userSpaceOnUse" x="-5" y="-5" width="50" height="50">
<rect x="-4.75" y="-4.75" width="49.5" height="49.5" fill="white"/>
</mask>
<g mask="url(#mask0_4707_495)">
<path fill-rule="evenodd" clip-rule="evenodd" d="M38.0075 39.0073C36.5483 36.8965 34.3972 35.3623 31.9263 34.6701L26.1874 33.0625V28.9376C28.6135 27.1152 30.2067 24.2474 30.3046 21.0033C30.6437 21.1528 31.018 21.2375 31.4126 21.2375C32.9313 21.2375 34.1626 20.0063 34.1626 18.4875C34.1626 16.9687 32.9313 15.7375 31.4126 15.7375C31.0211 15.7375 30.6496 15.8204 30.3126 15.9678V15.1875C30.3126 9.49197 25.6955 4.875 20.0001 4.875H19.9999C14.3046 4.875 9.68758 9.49197 9.68758 15.1875V15.9678C9.35043 15.8204 8.97891 15.7375 8.58758 15.7375C7.06876 15.7375 5.83758 16.9687 5.83758 18.4875C5.83758 20.0063 7.06876 21.2375 8.58758 21.2375C8.98207 21.2375 9.35634 21.1529 9.69556 21.0033C9.79332 24.2474 11.3865 27.1152 13.8124 28.9376V33.0625L8.07374 34.6701C5.60287 35.3623 3.45168 36.8965 1.99253 39.0073L-1.99992 44.783L-1.99992 48.875H42.0001V44.783L38.0075 39.0073Z" fill="#FFCF83"/>
<path fill-rule="evenodd" clip-rule="evenodd" d="M20 31C18.7284 31 17.5112 30.7684 16.3865 30.3475C17.9861 31.3694 19.8858 31.9625 21.925 31.9625C23.4457 31.9625 24.8879 31.6307 26.1875 31.0399V28.9376C24.4639 30.2323 22.3216 31 20 31Z" fill="#F7A74F"/>
<path d="M10.0463 18.8888C10.0813 18.7611 10.1002 18.6265 10.1002 18.4876C10.1002 17.6523 9.42298 16.9751 8.58766 16.9751C8.3788 16.9751 8.17984 17.0174 7.99889 17.0939" stroke="#00004D" stroke-width="0.275" stroke-linecap="round" stroke-linejoin="round"/>
<path d="M29.9539 18.8888C29.9188 18.7611 29.9001 18.6265 29.9001 18.4876C29.9001 17.6523 30.5773 16.9751 31.4126 16.9751C31.6213 16.9751 31.8203 17.0174 32.0014 17.0939" stroke="#00004D" stroke-width="0.275" stroke-linecap="round" stroke-linejoin="round"/>
<path fill-rule="evenodd" clip-rule="evenodd" d="M21.65 25.5838C21.65 25.0825 21.2436 24.6761 20.7425 24.6761C20.4353 24.6761 20.1641 24.8293 20 25.0629C19.8358 24.8293 19.5646 24.6761 19.2575 24.6761C18.7563 24.6761 18.35 25.0825 18.35 25.5838C18.35 25.6151 18.3516 25.6461 18.3546 25.6766C18.403 26.5444 19.1201 27.2338 20 27.2338C20.8798 27.2338 21.5969 26.5444 21.6453 25.6766C21.6483 25.6461 21.65 25.6151 21.65 25.5838Z" fill="#AE1328"/>
<path fill-rule="evenodd" clip-rule="evenodd" d="M24.5375 19.4402C24.8869 19.4402 25.2106 19.5495 25.4772 19.7348C25.5782 19.5686 25.6375 19.3742 25.6375 19.1652C25.6375 18.5577 25.145 18.0652 24.5375 18.0652C23.93 18.0652 23.4375 18.5577 23.4375 19.1652C23.4375 19.3742 23.4968 19.5686 23.5978 19.7348C23.8644 19.5495 24.1881 19.4402 24.5375 19.4402Z" fill="#00004D"/>
<path fill-rule="evenodd" clip-rule="evenodd" d="M15.4625 19.4402C15.8119 19.4402 16.1356 19.5495 16.4022 19.7348C16.5032 19.5686 16.5625 19.3742 16.5625 19.1652C16.5625 18.5577 16.07 18.0652 15.4625 18.0652C14.855 18.0652 14.3625 18.5577 14.3625 19.1652C14.3625 19.3742 14.4218 19.5686 14.5228 19.7348C14.7895 19.5495 15.1131 19.4402 15.4625 19.4402Z" fill="#00004D"/>
<path d="M19.9785 17.8L21.3206 21.2513C21.6011 21.9725 21.0691 22.75 20.2954 22.75H19.4285" stroke="#00004D" stroke-width="0.275" stroke-linecap="round" stroke-linejoin="round"/>
<path fill-rule="evenodd" clip-rule="evenodd" d="M24.4607 4.38205C24.6304 3.88993 24.7239 3.36235 24.7239 2.81262C24.7239 0.154747 22.5692 -1.99988 19.9114 -1.99988C17.2535 -1.99988 15.0989 0.154747 15.0989 2.81262C15.0989 3.39122 15.2012 3.9459 15.3884 4.45973C11.2157 6.28243 8.31255 10.4976 8.31255 15.3339V15.7512C8.40303 15.7422 8.4946 15.7372 8.58755 15.7372C9.41269 15.7372 10.1509 16.1024 10.655 16.678L10.6813 16.6717L11.5063 11.7215L12.2605 13.6073C12.4695 14.1293 12.975 14.4715 13.5373 14.4715H26.4628C27.0249 14.4715 27.5305 14.1293 27.7395 13.6073L28.4937 11.7215L29.3187 16.6717L29.344 16.6792C29.8481 16.103 30.5867 15.7372 31.4126 15.7372C31.5054 15.7372 31.5969 15.7422 31.6876 15.7512V15.1872C31.6876 10.3123 28.7026 6.13503 24.4607 4.38205Z" fill="#00004D"/>
<path fill-rule="evenodd" clip-rule="evenodd" d="M42 44.7832L38.0075 39.0076C36.5484 36.8969 34.3972 35.3626 31.9262 34.6704L26.875 33.2552V30.3127C26.875 29.933 26.5673 29.6252 26.1875 29.6252V30.3129C24.4639 31.6076 22.3217 32.3752 20 32.3752C17.6783 32.3752 15.5361 31.6076 13.8125 30.3129V29.6252C13.4327 29.6252 13.125 29.933 13.125 30.3127V33.2552L8.0738 34.6704C5.60279 35.3626 3.4516 36.8969 1.99245 39.0076L-2 44.7831V48.8752H42V44.7832Z" fill="#F5F5F8"/>
<path d="M23.638 35.2214C22.5065 35.6481 21.2805 35.8814 20 35.8814C17.3586 35.8814 14.9491 34.8882 13.1246 33.255" stroke="#00004D" stroke-width="0.275" stroke-linecap="round" stroke-linejoin="round"/>
</g>
</svg>
