<svg width="18" height="21" viewBox="0 0 18 21" fill="none" xmlns="http://www.w3.org/2000/svg">
<path d="M16.7942 6.45213L9.82565 1.51688C9.33097 1.16653 8.66903 1.16653 8.17435 1.51688L1.20584 6.45213C0.449523 6.98777 0 7.85697 0 8.78375V18.075C0 19.6529 1.27919 20.9321 2.85714 20.9321H5C5.78898 20.9321 6.42857 20.2925 6.42857 19.5036V17.3607C6.42857 16.5717 7.06817 15.9321 7.85714 15.9321H10.1429C10.9318 15.9321 11.5714 16.5717 11.5714 17.3607V19.5036C11.5714 20.2925 12.211 20.9321 13 20.9321H15.1429C16.7208 20.9321 18 19.6529 18 18.075V8.78375C18 7.85698 17.5505 6.98777 16.7942 6.45213Z" fill="white"/>
</svg>
