<svg width="16" height="16" viewBox="0 0 16 16" fill="none" xmlns="http://www.w3.org/2000/svg">
<path d="M3.00002 9.25C3.00002 8.15625 3.26043 7.18229 3.78127 6.32812C4.3021 5.47396 4.87501 4.75521 5.50001 4.17188C6.12501 3.58854 6.69793 3.14312 7.21876 2.83562L8.00001 2.375V4.4375C8.00001 4.82292 8.13022 5.1275 8.39064 5.35125C8.65106 5.575 8.94272 5.68708 9.26564 5.6875C9.44272 5.6875 9.6121 5.65104 9.77376 5.57812C9.93543 5.50521 10.0838 5.38542 10.2188 5.21875L10.5 4.875C11.25 5.3125 11.8542 5.91917 12.3125 6.695C12.7708 7.47083 13 8.3225 13 9.25C13 10.1667 12.7761 11.0027 12.3281 11.7581C11.8802 12.5135 11.2917 13.1096 10.5625 13.5463C10.7396 13.2963 10.8777 13.0227 10.9769 12.7256C11.0761 12.4285 11.1254 12.1137 11.125 11.7812C11.125 11.3646 11.0469 10.9713 10.8906 10.6013C10.7344 10.2313 10.5104 9.90062 10.2188 9.60938L8.00001 7.4375L5.79689 9.60938C5.49481 9.91146 5.26564 10.2448 5.10939 10.6094C4.95314 10.974 4.87501 11.3646 4.87501 11.7812C4.87501 12.1146 4.9246 12.4298 5.02376 12.7269C5.12293 13.024 5.26085 13.2973 5.43751 13.5469C4.70835 13.1094 4.11981 12.5129 3.67189 11.7575C3.22397 11.0021 3.00002 10.1662 3.00002 9.25ZM8.00001 9.1875L9.32814 10.4844C9.50522 10.6615 9.64064 10.8594 9.73439 11.0781C9.82814 11.2969 9.87501 11.5312 9.87501 11.7812C9.87501 12.2917 9.69272 12.7265 9.32814 13.0856C8.96356 13.4448 8.52085 13.6246 8.00001 13.625C7.47918 13.625 7.03647 13.4452 6.67189 13.0856C6.30731 12.726 6.12501 12.2912 6.12501 11.7812C6.12501 11.5417 6.17189 11.3098 6.26564 11.0856C6.35939 10.8615 6.49481 10.661 6.67189 10.4844L8.00001 9.1875Z" fill="white"/>
</svg>
